<svg width="820" height="820" viewBox="0 0 820 820" fill="none" xmlns="http://www.w3.org/2000/svg">
  <rect width="820" height="820" rx="48" fill="transparent"/>
  <g transform="translate(410 230)">
    <circle r="135" fill="#444B69"/>
    <circle r="125" stroke="#F9F6F1" stroke-width="8"/>
    <path d="M-22 -82V82" stroke="#F9F6F1" stroke-width="12" stroke-linecap="round"/>
    <path d="M-22 -82H18C62 -82 88 -54 88 -18C88 9 73 31 47 42C80 52 100 78 100 112C100 162 63 192 0 192H-22" transform="scale(1 0.68)" stroke="#F9F6F1" stroke-width="12" stroke-linecap="round" stroke-linejoin="round" fill="none"/>
  </g>
  <g fill="#F2C8BD" transform="translate(0 8)">
    <g transform="translate(245 215) rotate(-22)">
      <ellipse cx="0" cy="0" rx="16" ry="29"/>
      <ellipse cx="-8" cy="42" rx="16" ry="29"/>
      <ellipse cx="-14" cy="84" rx="16" ry="29"/>
      <ellipse cx="-18" cy="126" rx="16" ry="29"/>
      <ellipse cx="-20" cy="168" rx="16" ry="29"/>
      <ellipse cx="-18" cy="210" rx="16" ry="29"/>
      <ellipse cx="-12" cy="252" rx="16" ry="29"/>
      <ellipse cx="-2" cy="292" rx="16" ry="29"/>
    </g>
    <g transform="translate(575 215) scale(-1 1) rotate(-22)">
      <ellipse cx="0" cy="0" rx="16" ry="29"/>
      <ellipse cx="-8" cy="42" rx="16" ry="29"/>
      <ellipse cx="-14" cy="84" rx="16" ry="29"/>
      <ellipse cx="-18" cy="126" rx="16" ry="29"/>
      <ellipse cx="-20" cy="168" rx="16" ry="29"/>
      <ellipse cx="-18" cy="210" rx="16" ry="29"/>
      <ellipse cx="-12" cy="252" rx="16" ry="29"/>
      <ellipse cx="-2" cy="292" rx="16" ry="29"/>
    </g>
    <path d="M394 470C336 460 295 440 249 400" stroke="#F2C8BD" stroke-width="6" stroke-linecap="round"/>
    <path d="M426 470C484 460 525 440 571 400" stroke="#F2C8BD" stroke-width="6" stroke-linecap="round"/>
    <path d="M393 469L348 507" stroke="#F2C8BD" stroke-width="5" stroke-linecap="round"/>
    <path d="M427 469L472 507" stroke="#F2C8BD" stroke-width="5" stroke-linecap="round"/>
  </g>
  <g fill="#444B69" text-anchor="middle">
    <text x="410" y="645" font-size="72" font-family="Arial, Helvetica, sans-serif" font-weight="700" letter-spacing="8">RAMJI BAKERY</text>
    <text x="410" y="694" font-size="24" font-family="Arial, Helvetica, sans-serif" font-weight="700" letter-spacing="2.5">BEST IN VALUE, BEST IN TASTE</text>
    <line x1="55" y1="682" x2="195" y2="682" stroke="#3C4257" stroke-width="4"/>
    <line x1="625" y1="682" x2="765" y2="682" stroke="#3C4257" stroke-width="4"/>
  </g>
</svg>
